# xmcd CD database file
#
# Track frame offsets:
#	150
#	15547
#	37135
#	60409
#	90540
#	117860
#	137470
#	160583
#	185370
#	223695
#	245210
#	272445
#
# Disc length: 3800 seconds
#
# Revision: 0
# Processed by: cddbd v1.5.2PL0 Copyright (c) Steve Scherf et al.
# Submitted via: CDex 1.51
#
DISCID=9d0ed60c
DTITLE=Polaco and Cia - Outono
DYEAR=2010
DGENRE=Jazz
TTITLE0=Curitiba
TTITLE1=Parabéns
TTITLE2=Caro Jeff
TTITLE3=Giu
TTITLE4=Nova
TTITLE5=Outono
TTITLE6=Don
TTITLE7=Balão
TTITLE8=Dr. Miles
TTITLE9=Winds
TTITLE10=LA Mood
TTITLE11=Miles II
EXTD=YEAR: 2010
EXTT0=
EXTT1=
EXTT2=
EXTT3=
EXTT4=
EXTT5=
EXTT6=
EXTT7=
EXTT8=
EXTT9=
EXTT10=
EXTT11=
PLAYORDER=
